<?xml version="1.0" encoding="UTF-8"?>
<svg version="1.1" xmlns="http://www.w3.org/2000/svg" width="518" height="451">
<path d="M0 0 C1.37937744 0.75531006 1.37937744 0.75531006 2.78662109 1.52587891 C14.85234659 8.14762431 26.78204304 14.98824164 38.60864258 22.02734375 C45.80754671 26.31026069 53.05193545 30.51006678 60.3125 34.6875 C64.54200362 37.12441558 68.77109504 39.56204571 73 42 C73.87188965 42.50225098 74.7437793 43.00450195 75.64208984 43.52197266 C99.9930118 57.5771625 119.52292094 73.48914796 128.875 100.9375 C132.7180073 116.60892428 132.29677264 132.80400144 132.265625 148.81640625 C132.26697589 151.28726744 132.26891994 153.75812836 132.27142334 156.22898865 C132.27435409 161.3801428 132.27014304 166.53122709 132.26074219 171.68237305 C132.24934298 178.24383634 132.25592335 184.80513604 132.26788712 191.36659336 C132.27515621 196.46019191 132.27279482 201.55375245 132.26763153 206.64735222 C132.26630928 209.06516477 132.26789204 211.48298091 132.27259064 213.90078926 C132.31853247 244.17280488 128.94349316 269.11025754 107.71875 292.515625 C93.10858334 306.84838343 72.92837245 316.02959294 55.32617188 326.09716797 C49.89971364 329.20152906 44.48009693 332.31770577 39.0625 335.4375 C38.00095703 336.04770996 36.93941406 336.65791992 35.84570312 337.28662109 C30.16476761 340.56164442 24.51100677 343.87637133 18.890625 347.25390625 C-7.36559663 363.02789713 -32.83929223 376.18117731 -64.4375 368.5 C-82.60822446 363.13351661 -104.41483429 352.90570436 -114 336 C-117.47003409 328.59872476 -119.10316193 322.15756679 -119.20532227 313.96044922 C-119.2152077 313.26132101 -119.22509314 312.5621928 -119.23527813 311.84187889 C-119.26704798 309.49618283 -119.29184098 307.15046934 -119.31640625 304.8046875 C-119.33735259 303.10837469 -119.35858023 301.41206534 -119.38006592 299.71575928 C-119.4488543 294.1022496 -119.50622076 288.48864691 -119.5625 282.875 C-119.57734751 281.434771 -119.57734751 281.434771 -119.59249496 279.96544647 C-119.74523491 265.14138284 -119.86795732 250.31716835 -119.97470093 235.4927063 C-120.00048856 231.93255122 -120.02720511 228.37240382 -120.05395508 224.81225586 C-120.16217198 210.13793059 -120.24019078 195.46377601 -120.28610229 180.78912354 C-120.3016462 176.02222763 -120.32646662 171.25551692 -120.35916138 166.4887085 C-120.39732074 160.83349098 -120.41560698 155.17854293 -120.41901398 149.52320099 C-120.42346208 147.43849316 -120.43469911 145.35378672 -120.45333099 143.26915741 C-120.58062449 128.30269611 -119.86798278 116.361982 -109 105 C-98.86660209 95.48816739 -87.97111069 92.84676318 -74.37768555 92.85473633 C-73.54416565 92.85137772 -72.71064575 92.8480191 -71.85186768 92.84455872 C-69.11346928 92.83510863 -66.37513241 92.83310859 -63.63671875 92.83203125 C-61.72011796 92.82881449 -59.8035174 92.82545011 -57.88691711 92.82194519 C-53.87488232 92.81596874 -49.86286901 92.81410376 -45.85083008 92.81469727 C-40.73009708 92.81479879 -35.60950302 92.80114978 -30.48880291 92.78392506 C-26.53120806 92.77276286 -22.57364635 92.77077935 -18.61603737 92.77130699 C-16.72914972 92.77013311 -14.84226104 92.76574487 -12.95538902 92.75797462 C2.60688872 92.69988761 17.7340307 92.9130684 29.875 104.25 C39.31927813 114.6641062 42.10488444 125.96369123 42.14526367 139.69433594 C42.15030159 140.77908203 42.15030159 140.77908203 42.15544128 141.88574219 C42.16485924 144.25197111 42.16688984 146.61812856 42.16796875 148.984375 C42.17118803 150.64813261 42.1745526 152.31188994 42.17805481 153.97564697 C42.18402347 157.455451 42.18589708 160.93523028 42.18530273 164.41503906 C42.18520132 168.84389649 42.19884209 173.27259285 42.21607494 177.7014122 C42.22726969 181.13666493 42.22921965 184.57187965 42.22869301 188.00714874 C42.22986233 189.63839522 42.23422421 191.26964303 42.24202538 192.90087128 C42.31132809 208.89004402 41.6523659 222.93089202 30.375 235.3125 C19.59860139 245.3279697 6.49848259 247.30501134 -7.6328125 247.3359375 C-9.24783157 247.3459227 -9.24783157 247.3459227 -10.89547729 247.35610962 C-13.15604966 247.36617209 -15.41665135 247.37092864 -17.67724609 247.37060547 C-21.12256645 247.3749969 -24.56662277 247.41143604 -28.01171875 247.44921875 C-30.21874566 247.45508472 -32.4257786 247.45905558 -34.6328125 247.4609375 C-36.16435471 247.48249405 -36.16435471 247.48249405 -37.72683716 247.50448608 C-44.25940142 247.46296742 -48.41129846 246.43592422 -54 243 C-56.63659945 240.10156735 -57.8374087 236.8088282 -58.1875 232.9140625 C-57.85930071 227.56031155 -55.82849866 224.65447599 -52 221 C-48.47705423 219.27521299 -45.64098518 218.74734761 -41.73828125 218.72875977 C-40.71371826 218.71857315 -39.68915527 218.70838654 -38.63354492 218.69789124 C-36.98962769 218.69468117 -36.98962769 218.69468117 -35.3125 218.69140625 C-32.98176825 218.66625425 -30.65103914 218.64085611 -28.3203125 218.61523438 C-24.65332681 218.58645538 -20.9863869 218.56243047 -17.31933594 218.54370117 C-13.77515449 218.52206712 -10.23149965 218.48263785 -6.6875 218.44140625 C-5.59155518 218.44129044 -4.49561035 218.44117462 -3.36645508 218.4410553 C-1.8296106 218.42104713 -1.8296106 218.42104713 -0.26171875 218.40063477 C0.63587158 218.39556412 1.53346191 218.39049347 2.45825195 218.38526917 C6.65446667 217.7492218 9.12853767 216.07115045 11.78823853 212.80200195 C13.33667586 209.22149166 13.42040074 205.99956479 13.38818359 202.16796875 C13.39344055 201.39498444 13.39869751 200.62200012 13.40411377 199.82559204 C13.41727989 197.27935369 13.40858794 194.73374433 13.3984375 192.1875 C13.40045921 190.41300334 13.40337147 188.63850749 13.40713501 186.86401367 C13.41155376 183.14851964 13.40514178 179.43324225 13.39111328 175.71777344 C13.37402162 170.95957697 13.38386521 166.20188818 13.40183067 161.44371033 C13.41268065 157.78051949 13.4092166 154.11744864 13.4014473 150.45425415 C13.39944865 148.70000142 13.40189279 146.94573773 13.40888596 145.1914978 C13.41652048 142.73804947 13.40486874 140.28541882 13.38818359 137.83203125 C13.39729263 136.74869003 13.39729263 136.74869003 13.40658569 135.64346313 C13.35135766 131.25119107 12.79126186 128.43085558 10 125 C5.81988139 121.52822493 1.65978206 121.57203996 -3.55053711 121.61181641 C-4.3999437 121.60655945 -5.24935028 121.60130249 -6.12449646 121.59588623 C-8.92563396 121.5827085 -11.7262007 121.5914172 -14.52734375 121.6015625 C-16.47880665 121.59954094 -18.43026881 121.59662881 -20.38172913 121.59286499 C-24.46964721 121.58844449 -28.55736848 121.59486322 -32.64526367 121.60888672 C-37.87865106 121.62596703 -43.11157647 121.61614293 -48.34494686 121.59816933 C-52.37447065 121.58731444 -56.40388543 121.59078587 -60.43341255 121.5985527 C-62.36267718 121.60055058 -64.29195178 121.59810994 -66.22120476 121.59111404 C-68.92109147 121.58347282 -71.62023668 121.59514161 -74.32006836 121.61181641 C-75.51022552 121.60270737 -75.51022552 121.60270737 -76.72442627 121.59341431 C-81.50403176 121.64794526 -84.96276848 122.17510479 -89 125 C-93.11787751 130.38797002 -92.36964504 136.62653065 -92.26464844 143.09326172 C-92.25693924 144.31116394 -92.24923004 145.52906616 -92.24128723 146.78387451 C-92.21701461 150.13045064 -92.17914751 153.47635353 -92.13518429 156.8226943 C-92.09152982 160.38651499 -92.06502939 163.95046724 -92.03643799 167.51443481 C-91.98563992 173.55223359 -91.92373641 179.58983279 -91.85400391 185.62744141 C-91.75817724 193.92530554 -91.68146798 202.22325351 -91.60928059 210.52135229 C-91.46865018 226.56139177 -91.28698618 242.60075891 -91.08079863 258.64008164 C-91.02636596 262.88215654 -90.9743979 267.12425212 -90.9244597 271.36638224 C-90.83786856 278.71888114 -90.74062999 286.07113887 -90.63132477 293.42334366 C-90.59615286 295.87578111 -90.56415151 298.32826631 -90.53548431 300.78078842 C-90.49545346 304.1289743 -90.44326741 307.4767482 -90.38769531 310.82470703 C-90.37852333 311.80614307 -90.36935135 312.78757912 -90.35990143 313.79875565 C-90.34242607 314.69613827 -90.32495071 315.59352089 -90.3069458 316.51809692 C-90.29588428 317.2925371 -90.28482277 318.06697727 -90.27342606 318.86488533 C-89.86812843 322.02975161 -88.89576202 324.2749832 -86.40283203 326.29272461 C-85.77747559 326.65889893 -85.15211914 327.02507324 -84.5078125 327.40234375 C-83.80857666 327.81548828 -83.10934082 328.22863281 -82.38891602 328.65429688 C-81.26827759 329.28948242 -81.26827759 329.28948242 -80.125 329.9375 C-79.35921631 330.37771484 -78.59343262 330.81792969 -77.80444336 331.27148438 C-62.15196328 340.12117471 -46.7818844 344.92547627 -29 340 C-19.94992925 336.74084004 -11.71884713 332.21587394 -3.4375 327.375 C-2.1960115 326.65641816 -0.95414411 325.93849055 0.28808594 325.22119141 C2.74467768 323.8011677 5.19893552 322.3772535 7.65087891 320.94921875 C10.49664423 319.29295761 13.34616148 317.64365238 16.19921875 316 C25.84417028 310.44017211 35.45732029 304.8253277 45.06787109 299.20629883 C49.83378685 296.421387 54.60484469 293.64720028 59.3984375 290.91015625 C77.97467751 280.29848138 95.05616411 269.67908511 101.5829258 248.0700264 C103.15421322 241.59732329 103.29591884 235.34878141 103.29052734 228.70996094 C103.29724457 227.51033218 103.30396179 226.31070343 103.31088257 225.07472229 C103.32654487 221.80791755 103.33323288 218.54126604 103.33451414 215.27442837 C103.33594326 213.2261263 103.34022714 211.1778503 103.34550858 209.12955475 C103.3639702 201.96281767 103.37218417 194.7961546 103.37060547 187.62939453 C103.36940551 180.98272585 103.39048889 174.33638263 103.4220928 167.68979621 C103.44837375 161.95526112 103.45896783 156.22083155 103.45769465 150.48623681 C103.45718842 147.07367232 103.4626811 143.66139743 103.48405075 140.24889374 C103.50378932 136.43486522 103.49784075 132.62166083 103.48583984 128.80761719 C103.49707886 127.69965286 103.50831787 126.59168854 103.51989746 125.45014954 C103.40108408 110.48501289 97.73226876 96.06631721 87.3984375 85.15625 C77.13987651 75.93356976 63.68901734 69.70857623 51.796875 62.8984375 C45.471267 59.27585052 39.16864452 55.61528039 32.875 51.9375 C31.89934082 51.36789551 30.92368164 50.79829102 29.91845703 50.21142578 C24.85275214 47.25329499 19.7892484 44.29141901 14.7265625 41.328125 C8.82387385 37.87476685 2.91450247 34.43308125 -3 31 C-3.8053418 30.53126465 -4.61068359 30.0625293 -5.44042969 29.57958984 C-22.78161677 19.51424276 -39.01535386 12.51945257 -59.3359375 17.73046875 C-73.21221204 22.53834639 -85.85694423 31.19216802 -98.38842773 38.68774414 C-106.60045918 43.5983056 -114.87038657 48.39480009 -123.1875 53.125 C-165.04726608 74.08641508 -165.04726608 74.08641508 -190.03598022 111.37860107 C-191.39780121 116.94995469 -191.28726764 122.4856122 -191.2746582 128.19238281 C-191.27976913 129.39347183 -191.28488007 130.59456085 -191.29014587 131.83204651 C-191.30161768 135.10711519 -191.30412268 138.3820259 -191.30158257 141.65710926 C-191.30050727 144.40267657 -191.30541072 147.14822097 -191.310188 149.89378333 C-191.3212585 156.37923913 -191.32173518 162.864637 -191.31567383 169.35009766 C-191.30964258 176.01204905 -191.32192896 182.67378879 -191.3432439 189.33570409 C-191.360937 195.0795434 -191.36684898 200.82331583 -191.36360615 206.56718135 C-191.36180458 209.98693653 -191.36431512 213.40654087 -191.37832069 216.82627106 C-191.39073564 220.64769001 -191.3838621 224.46862711 -191.37231445 228.29003906 C-191.37995819 229.40316971 -191.38760193 230.51630035 -191.39547729 231.66316223 C-191.29186637 247.2721141 -186.23882914 261.37917309 -175.4453125 272.87109375 C-171.38216124 276.4085018 -166.87424114 279.1819433 -162.26953125 281.95703125 C-153.61692765 287.36361629 -153.61692765 287.36361629 -152 292 C-151.42134201 296.2009067 -151.53274909 299.8933531 -153.1875 303.8125 C-156.26481269 307.52649808 -158.6647969 309.62911025 -163.375 310.9375 C-174.6952317 311.13267641 -187.85974094 299.86360516 -195.69921875 292.421875 C-213.39900372 273.7905224 -220.1562396 251.55271427 -220.14526367 226.27075195 C-220.14862228 225.14246475 -220.1519809 224.01417755 -220.15544128 222.85169983 C-220.1648862 219.14721555 -220.1668912 215.4427768 -220.16796875 211.73828125 C-220.17118604 209.14291872 -220.17455047 206.54755637 -220.17805481 203.95219421 C-220.18403011 198.51963809 -220.18593946 193.08709977 -220.18530273 187.65454102 C-220.18470317 181.41300149 -220.19523838 175.17154873 -220.2110464 168.93003112 C-220.22580335 162.88376216 -220.22928793 156.83753956 -220.22869301 150.79125023 C-220.22986564 148.2386356 -220.23424672 145.68602018 -220.24202538 143.13341713 C-220.32304814 113.79756496 -217.164316 88.1883958 -196 66 C-189.13179896 59.19638007 -181.87631031 54.15517241 -173.5 49.375 C-172.3118947 48.68528643 -171.12440755 47.99450709 -169.9375 47.30273438 C-166.89136808 45.53123589 -163.83736641 43.77386339 -160.78027344 42.0213623 C-157.98578435 40.41813341 -155.19627245 38.80629836 -152.40625 37.1953125 C-149.19901682 35.3443574 -145.99101092 33.49483651 -142.7800293 31.65039062 C-134.91551207 27.12824873 -127.10664431 22.51693729 -119.3125 17.875 C-110.74805562 12.78368011 -102.15952435 7.74066144 -93.5 2.8125 C-92.59934814 2.29606934 -91.69869629 1.77963867 -90.77075195 1.24755859 C-60.61441379 -15.80038904 -30.42770413 -16.82036055 0 0 Z " fill="#FEFEFE" transform="translate(293,43)"/>
</svg>
