<?xml version="1.0" encoding="UTF-8"?>
<svg version="1.1" xmlns="http://www.w3.org/2000/svg" width="456" height="473">
<path d="M0 0 C0.95245605 0.55671387 1.90491211 1.11342773 2.88623047 1.68701172 C7.42993693 4.35067441 11.96233128 7.03285426 16.48828125 9.7265625 C22.22468903 13.13950477 27.98416276 16.51206555 33.75 19.875 C34.73323242 20.44943848 35.71646484 21.02387695 36.72949219 21.61572266 C42.10687178 24.75180208 47.49917805 27.85979356 52.91015625 30.9375 C54.07397831 31.60157618 55.23771581 32.26580057 56.40136719 32.93017578 C58.60068702 34.18409661 60.80295451 35.43286828 63.00878906 36.67529297 C87.25664556 50.51745191 104.5419911 68.09960119 112.30859375 95.23046875 C113.43595553 99.74628513 114.1262996 103.87669716 114.14717102 108.5428009 C114.15790398 110.19705078 114.15790398 110.19705078 114.16885376 111.88471985 C114.17154266 113.08525497 114.17423157 114.2857901 114.17700195 115.52270508 C114.18357315 116.79495941 114.19014435 118.06721375 114.19691467 119.37802124 C114.21789702 123.59184522 114.22831837 127.80566928 114.23828125 132.01953125 C114.24233236 133.47687994 114.24644938 134.93422845 114.25063133 136.39157677 C114.269678 143.24732704 114.28390459 150.10306665 114.2922433 156.95883828 C114.30198432 164.83501628 114.32822335 172.71091089 114.36874419 180.58698922 C114.39908249 186.69684592 114.41372919 192.80662227 114.41702431 198.91655272 C114.41935663 202.55452591 114.42807444 206.19219628 114.45348549 209.83008766 C114.68475047 244.73241496 114.68475047 244.73241496 106.25 260.3125 C105.90565918 260.97072754 105.56131836 261.62895508 105.20654297 262.30712891 C96.2464693 279.008967 84.08352499 289.62920673 68 299 C66.15875472 300.08316431 64.31761442 301.16650708 62.4765625 302.25 C57.36305327 305.24973881 52.23671947 308.22693221 47.10693359 311.19873047 C42.17013946 314.06087624 37.24135746 316.9367155 32.3125 319.8125 C31.34038574 320.37904297 30.36827148 320.94558594 29.36669922 321.52929688 C23.79619528 324.77747787 18.23259491 328.03707028 12.67578125 331.30859375 C5.46037228 335.55601521 -1.76379115 339.78810526 -9 344 C-9.93231445 344.54269531 -10.86462891 345.08539063 -11.82519531 345.64453125 C-33.93749615 358.44416778 -56.25049617 365.50673682 -81.81640625 358.9453125 C-82.86699219 358.63335937 -83.91757813 358.32140625 -85 358 C-86.43666016 357.59394531 -86.43666016 357.59394531 -87.90234375 357.1796875 C-98.96450378 353.48745537 -108.77550591 346.88905552 -118.72802734 340.94238281 C-124.12091817 337.74093233 -129.56168385 334.62343707 -135 331.5 C-146.3813704 324.94403219 -157.740444 318.35081091 -169.07421875 311.71289062 C-171.0447972 310.55922086 -173.01616787 309.40690333 -174.98828125 308.25585938 C-203.39513294 291.66968319 -225.35984708 276.00391139 -235.30859375 243.2578125 C-237.08302925 234.89691303 -237.15231654 226.43475914 -237.16113281 217.91943359 C-237.16609772 216.7537384 -237.17106262 215.58804321 -237.17617798 214.38702393 C-237.19069823 210.55748895 -237.19758476 206.7279954 -237.203125 202.8984375 C-237.20742681 200.89489825 -237.21172919 198.89135899 -237.2160995 196.88781989 C-237.22787256 191.30776977 -237.23543432 185.72772951 -237.2388947 180.14766824 C-237.24336665 172.98020118 -237.26088877 165.81292565 -237.2898953 158.64551675 C-237.31165767 153.07058507 -237.32160667 147.49570671 -237.32293582 141.92073309 C-237.32397355 138.60704713 -237.33115513 135.29358066 -237.34775543 131.97993088 C-237.48254776 103.0051019 -233.69003941 78.05385229 -213 56 C-205.8752555 49.22144215 -197.7793718 44.19876694 -189.30419922 39.32666016 C-186.77059744 37.86791974 -184.24615585 36.39411435 -181.72265625 34.91796875 C-177.70044878 32.56593896 -173.67547778 30.21874552 -169.6484375 27.875 C-163.20711035 24.12381755 -156.77606076 20.35529979 -150.34692383 16.58328247 C-148.49919602 15.49952844 -146.65103997 14.41650853 -144.80273438 13.33374023 C-139.02785259 9.95043503 -133.25590792 6.56246259 -127.4921875 3.16015625 C-91.63632971 -17.96707072 -91.63632971 -17.96707072 -77 -21 C-76.30390625 -21.14824219 -75.6078125 -21.29648437 -74.890625 -21.44921875 C-46.37187089 -26.14140693 -23.67553042 -13.84363439 0 0 Z M-116.27148438 28.62841797 C-124.66777402 33.64260281 -133.12428627 38.54016411 -141.625 43.375 C-151.79973067 49.16759524 -161.96579301 54.96634269 -172 61 C-172.7007666 61.41975098 -173.4015332 61.83950195 -174.12353516 62.27197266 C-190.83734705 72.32874711 -201.38598439 81.92321117 -208 101 C-208.82341265 104.49943415 -209.13039888 107.74391386 -209.14717102 111.33520508 C-209.15432632 112.39188889 -209.16148163 113.44857269 -209.16885376 114.53727722 C-209.17154266 115.68642105 -209.17423157 116.83556488 -209.17700195 118.01953125 C-209.18357315 119.23808304 -209.19014435 120.45663483 -209.19691467 121.71211243 C-209.21662667 125.74557749 -209.22831447 129.77900281 -209.23828125 133.8125 C-209.24233219 135.20676696 -209.24644921 136.60103372 -209.25063133 137.99530029 C-209.26967233 144.55150613 -209.28390242 151.10770083 -209.2922433 157.66392899 C-209.30199467 165.20224939 -209.32826341 172.74027452 -209.36874419 180.27849102 C-209.3990408 186.12333501 -209.41372514 191.96809504 -209.41702431 197.81301594 C-209.41936051 201.29496204 -209.42813102 204.77659236 -209.45348549 208.25845337 C-209.48139545 212.15416581 -209.47689395 216.04949948 -209.4699707 219.9453125 C-209.48278076 221.07826248 -209.49559082 222.21121246 -209.50878906 223.37849426 C-209.40158291 240.04100466 -202.90706206 253.6414678 -191.26953125 265.296875 C-183.54702034 272.09979575 -173.89482295 276.86661963 -165 281.9375 C-162.70363173 283.25385043 -160.40781032 284.57107843 -158.11328125 285.890625 C-157.52839432 286.22696457 -156.94350739 286.56330414 -156.34089661 286.90983582 C-149.92102565 290.60952415 -143.55406165 294.39705638 -137.1875 298.1875 C-128.23105293 303.51767826 -119.2372178 308.76902704 -110.16479492 313.89941406 C-105.67897298 316.44215595 -101.25522851 319.05458835 -96.87548828 321.77563477 C-81.57181178 331.25626435 -66.58417576 335.09085932 -48.703125 332.52734375 C-33.47977807 328.52014 -19.41705836 318.59404276 -6.078125 310.46484375 C-0.8823462 307.30685893 4.37261761 304.25007987 9.625 301.1875 C10.65447754 300.58711914 11.68395508 299.98673828 12.74462891 299.36816406 C18.53079627 296.00051513 24.33170991 292.66066564 30.15209961 289.35253906 C33.58339828 287.40101012 37.00815163 285.43820925 40.43115234 283.47216797 C42.17132166 282.4749031 43.91391711 281.48186187 45.65869141 280.49267578 C64.09000959 270.01291441 78.87311447 259.32219393 85.52734375 238.2578125 C87.05197837 230.97484714 87.15334353 223.78514049 87.16113281 216.37426758 C87.16609772 215.23330627 87.17106262 214.09234497 87.17617798 212.91680908 C87.19072778 209.1593769 87.19758967 205.40198693 87.203125 201.64453125 C87.2088824 199.01909892 87.21464005 196.39366658 87.22039795 193.76823425 C87.22994894 188.96975521 87.23585819 184.17128516 87.2388947 179.37279779 C87.24336877 172.3445103 87.26089729 165.31641793 87.2898953 158.28818971 C87.31425128 152.16930023 87.32184547 146.05049034 87.32357025 139.93155479 C87.32658318 137.34378688 87.33456532 134.75601951 87.34775543 132.16828346 C87.36494699 128.53627653 87.36290359 124.90473698 87.35644531 121.27270508 C87.3656601 120.21927414 87.37487488 119.1658432 87.3843689 118.08049011 C87.2956457 102.02833042 82.51001875 88.31664904 71.63671875 76.44921875 C64.00691832 69.36198191 55.56711431 64.2421522 46.5 59.1875 C44.60596428 58.12058238 42.71342077 57.05104905 40.82089233 55.98146057 C39.57773439 55.2791539 38.33410736 54.57767688 37.08999634 53.87705994 C32.48611368 51.28341082 27.9181728 48.63573247 23.375 45.9375 C15.1563137 41.06782407 6.87716816 36.30444165 -1.40429688 31.54248047 C-6.98071716 28.33253111 -12.53883571 25.09804416 -18.06054688 21.79492188 C-56.42816441 -1.10949313 -79.43164625 6.61541052 -116.27148438 28.62841797 Z " fill="#FEFEFE" transform="translate(292,64)"/>
<path d="M0 0 C4.29338861 2.26871913 8.42395179 4.7743691 12.5625 7.3125 C14.34551377 8.39030651 16.13074486 9.46437332 17.91615295 10.53820801 C19.13612407 11.27212149 20.35547246 12.00707108 21.57420349 12.74304199 C27.72943055 16.4559683 33.95286351 20.0472626 40.1875 23.625 C42.32430622 24.85531684 44.46102529 26.08578507 46.59765625 27.31640625 C49.84409783 29.18481527 53.0910638 31.05228945 56.33935547 32.91748047 C59.60413904 34.79417092 62.86491374 36.67766433 66.125 38.5625 C67.59102661 39.40192139 67.59102661 39.40192139 69.08666992 40.25830078 C87.7568455 51.07927568 87.7568455 51.07927568 90.52626324 60.85826969 C91.89509751 66.59291035 92.29144178 71.97669222 92.2746582 77.85913086 C92.27976913 78.80023209 92.28488007 79.74133331 92.29014587 80.71095276 C92.30394955 83.79564931 92.30309222 86.88012015 92.30078125 89.96484375 C92.30467293 92.12520937 92.30900857 94.28557423 92.31376648 96.44593811 C92.32120864 100.96390265 92.32095173 105.481789 92.31567383 109.99975586 C92.3098786 115.77068045 92.32682147 121.54128416 92.3500185 127.31215572 C92.36479522 131.77073517 92.36562223 136.229238 92.36250877 140.6878376 C92.36301989 142.81476032 92.36821806 144.94168756 92.37832069 147.06858635 C92.39074579 150.04975761 92.38385731 153.0303122 92.37231445 156.01147461 C92.37995819 156.87775482 92.38760193 157.74403503 92.39547729 158.63656616 C92.32914974 166.44088612 90.83849183 174.99348421 85.8359375 181.25390625 C76.1386728 190.47662396 62.30483617 196.51119755 50.796875 203.1015625 C44.47126009 206.72415344 38.169042 210.38539153 31.875 214.0625 C30.9058667 214.62702881 29.9367334 215.19155762 28.93823242 215.77319336 C23.74834286 218.7985833 18.57220954 221.84529993 13.41015625 224.91796875 C12.32686035 225.55919678 11.24356445 226.2004248 10.12744141 226.86108398 C8.05685254 228.08717813 5.98988415 229.31941491 3.92724609 230.55883789 C-3.99734095 235.23844905 -11.59383949 238.79657957 -21.00683594 236.51318359 C-27.2519715 234.50157119 -32.71480073 231.60214598 -38.375 228.3125 C-39.36395264 227.7457959 -40.35290527 227.1790918 -41.37182617 226.59521484 C-50.19853999 221.51619065 -58.95685592 216.31964208 -67.70263672 211.1027832 C-73.47668088 207.6619158 -79.26537639 204.25687761 -85.10546875 200.9296875 C-85.68710281 200.59760284 -86.26873688 200.26551819 -86.86799622 199.92337036 C-89.62790684 198.34837131 -92.39124049 196.78010284 -95.16137695 195.22314453 C-117.91018439 182.26944684 -117.91018439 182.26944684 -122 170 C-122.09869019 168.55058127 -122.14343193 167.09713093 -122.15390015 165.64439392 C-122.16250061 164.75440704 -122.17110107 163.86442017 -122.17996216 162.94746399 C-122.18422211 161.97343124 -122.18848206 160.9993985 -122.19287109 159.99584961 C-122.20104858 158.96784241 -122.20922607 157.93983521 -122.21765137 156.88067627 C-122.24250546 153.47123801 -122.25902416 150.06184149 -122.2734375 146.65234375 C-122.27876118 145.4870923 -122.28408485 144.32184086 -122.28956985 143.12127876 C-122.31630527 136.9500812 -122.33567639 130.77890388 -122.35009766 124.60766602 C-122.3634228 119.50657158 -122.39124938 114.40587849 -122.43212891 109.30493164 C-122.48152161 103.14170698 -122.50622752 96.97884572 -122.51332474 90.81543159 C-122.52002638 88.47077025 -122.53521991 86.12611666 -122.55921555 83.78156853 C-122.59096771 80.4905908 -122.5908878 77.20100391 -122.58349609 73.90991211 C-122.59990143 72.95004898 -122.61630676 71.99018585 -122.63320923 71.00123596 C-122.56274021 63.29460366 -120.40096203 56.77594622 -115.1756649 50.97451687 C-109.91065006 45.96212079 -103.49680994 42.57486012 -97.1875 39.0625 C-94.85717938 37.74242633 -92.52780349 36.42077995 -90.19921875 35.09765625 C-89.60402435 34.76069733 -89.00882996 34.4237384 -88.39559937 34.0765686 C-82.04340466 30.47469377 -75.77171656 26.73989281 -69.5 23 C-60.32958452 17.55398061 -51.15138804 12.12212945 -41.9375 6.75 C-40.885625 6.12996094 -39.83375 5.50992188 -38.75 4.87109375 C-24.60248404 -3.34065618 -15.40852984 -6.65605309 0 0 Z M-65.375 68.1875 C-68.73793118 74.00795781 -69.25063701 80.05459715 -69.25878906 86.66601562 C-69.2622937 87.38585129 -69.26579834 88.10568695 -69.26940918 88.84733582 C-69.27813141 91.20040859 -69.27241136 93.55317477 -69.265625 95.90625 C-69.26697439 97.55717018 -69.2689172 99.20808996 -69.27142334 100.85900879 C-69.27436173 104.30855109 -69.2701185 107.75798938 -69.26074219 111.20751953 C-69.24934842 115.61212699 -69.2559148 120.01649064 -69.26788712 124.42108917 C-69.27514053 127.82702445 -69.27280185 131.23290265 -69.26763153 134.63883972 C-69.26630465 136.26222259 -69.26790876 137.88561077 -69.27259064 139.50898743 C-69.27771346 141.78412453 -69.2698658 144.05887575 -69.25878906 146.33398438 C-69.25719788 147.62445679 -69.25560669 148.9149292 -69.25396729 150.24450684 C-68.87712432 155.81700093 -68.27095257 160.50092773 -64.5625 164.875 C-58.58587584 169.83122492 -53.84534691 170.14923522 -46.29150391 170.16113281 C-45.15147667 170.16858017 -45.15147667 170.16858017 -43.98841858 170.17617798 C-41.48445721 170.19073378 -38.98055915 170.19759001 -36.4765625 170.203125 C-34.72927856 170.20888117 -32.98199462 170.21463884 -31.23471069 170.22039795 C-27.57476509 170.23088872 -23.91484133 170.23674419 -20.25488281 170.24023438 C-15.57540176 170.24571993 -10.89621153 170.26975735 -6.21682167 170.29820633 C-2.6084815 170.31686844 0.99978903 170.32204017 4.60817337 170.32357025 C6.33287778 170.32658843 8.05758121 170.33458865 9.78223801 170.34775543 C12.19928647 170.36489368 14.61562955 170.36291719 17.03271484 170.35644531 C17.73840103 170.3656601 18.44408722 170.37487488 19.17115784 170.3843689 C24.69972931 170.33821575 29.47464297 169.17429843 33.7421875 165.5 C37.68935197 160.27340981 38.15171528 156.503656 38.16113281 150.13549805 C38.16609772 149.33515137 38.17106262 148.53480469 38.17617798 147.71020508 C38.19079064 145.0607009 38.19760033 142.41125661 38.203125 139.76171875 C38.20887747 137.9194997 38.21463519 136.07728066 38.22039795 134.23506165 C38.23090558 130.37065349 38.23674971 126.50626613 38.24023438 122.6418457 C38.24571665 117.69541658 38.26973996 112.74926307 38.29820633 107.80292034 C38.3168511 103.99645694 38.3220393 100.19005966 38.32357025 96.38355446 C38.32659348 94.56033637 38.33461086 92.73711936 38.34775543 90.91394615 C38.36485342 88.3599808 38.36292657 85.80668527 38.35644531 83.25268555 C38.3656601 82.50285904 38.37487488 81.75303253 38.3843689 80.98048401 C38.34131738 75.55155503 37.1830955 71.45088854 33.53515625 67.35546875 C28.09708267 63.04251384 24.10283439 62.84936778 17.32910156 62.83886719 C16.56108215 62.83390228 15.79306274 62.82893738 15.00177002 62.82382202 C12.4647125 62.80923578 9.92771754 62.80240372 7.390625 62.796875 C5.6218872 62.79111992 3.85314941 62.78536223 2.08441162 62.77960205 C-1.6243926 62.76910162 -5.3331752 62.76325293 -9.04199219 62.75976562 C-13.78081544 62.75428792 -18.51935036 62.73027136 -23.25808334 62.70179367 C-26.91278908 62.68311417 -30.56742616 62.67795883 -34.2221756 62.67642975 C-35.96838199 62.67341385 -37.71458748 62.66542141 -39.46074677 62.65224457 C-41.91122477 62.63507519 -44.36100871 62.63709071 -46.81152344 62.64355469 C-47.88104248 62.62973251 -47.88104248 62.62973251 -48.97216797 62.6156311 C-55.1441214 62.666302 -60.744819 63.92285961 -65.375 68.1875 Z " fill="#FEFEFE" transform="translate(246,117)"/>
</svg>
